<?xml version="1.0" encoding="UTF-8"?>
<svg id="Layer_1" xmlns="http://www.w3.org/2000/svg" viewBox="0 0 128.96 43.51">
  <defs>
    <style>
      .cls-1 {
        fill: #8e3d3e;
      }

      .cls-2, .cls-3, .cls-4 {
        fill: #fff;
      }

      .cls-2, .cls-5 {
        letter-spacing: 0em;
      }

      .cls-2, .cls-4 {
        font-family: GillSansMT, 'Gill Sans MT';
      }

      .cls-6 {
        letter-spacing: -.03em;
      }

      .cls-7 {
        fill: #231f20;
        font-family: MyriadPro-Regular, 'Myriad Pro';
      }

      .cls-8 {
        font-size: 12px;
      }

      .cls-9 {
        fill: #4f2527;
      }

      .cls-10 {
        fill: none;
        stroke: #fff;
        stroke-miterlimit: 10;
        stroke-width: .22px;
      }
    </style>
  </defs>
  <path class="cls-3" d="M14.48,37.39C8.11,31.86,2.64,24.85.72,16.64.22,14.51-.24,12.29.15,10.14c.57-3.14,1.94-4.35,3.03-5.51.91-.97,2.57-1.32,3.86-1.63,4.52-1.08,9.57.4,12.78,3.76C23.53,2.55,29.02-.29,34.62.02c1.41.08,2.84.36,4.06,1.08,1.84,1.08,3.02,3.06,3.5,5.13s.31,4.25-.08,6.34c-.88,4.79-2.87,9.29-4.99,13.68-2.06,4.26-4.27,8.46-6.61,12.57-.74,1.31-2.89,4.32-4.58,4.62s-4.35-.9-5.67-1.72c-2.05-1.28-3.95-2.76-5.77-4.34Z"/>
  <g>
    <path class="cls-9" d="M32.11,14.82c.39-.55.86-1.05,1.4-1.45.75-.56,1.71-.97,2.62-.74.65.17,1.19.64,1.59,1.19.33.46.59.97.76,1.51.35,1.15.27,2.39.11,3.58-.23,1.61-.66,3.29-1.8,4.45-.71.72-1.67,1.2-2.68,1.32s-2.05-.1-2.92-.63c.02-.49.27-1.01.63-1.34,1.07.81,2.73.76,3.78-.09s1.59-2.19,1.8-3.52c.18-1.18.11-2.47-.58-3.45-.2-.29-.47-.56-.81-.66-.26-.08-.54-.06-.8,0-1.09.24-1.93,1.07-2.79,1.78-.12.1-.25.19-.4.19-.26,0-.41-.3-.43-.55-.04-.56.2-1.14.52-1.6Z"/>
    <path class="cls-1" d="M9.7,26.79c1.22,1.91,2.58,3.54,4.43,4.68,1.01.63,2.45,1,3.57,1.3,3.15.84,7.06.04,9.52-2.27s3.6-4.31,4.56-7.71c.22-.78.41-1.58.53-2.39.22-1.48.22-4.25-.06-5.71-.09-.5-.22-2.4-.55-2.76-.27-.29-1.49-.55-1.85-.68-4.81-1.77-9.27-.1-14.29.71-2.58.42-5.88.77-8.08,2.49-.84.66-.38,2.27-.3,3.27.12,1.49.31,2.99.65,4.44.38,1.64.97,3.24,1.86,4.63Z"/>
    <path class="cls-9" d="M17.71,9.37c-1.71.23-3.41.59-5.07,1.07-2.02.59-4.1,1.45-5.31,3.17-.24.34-.41,1.54-.26,1.93.17.46.69.81,1.14,1.02,3.29,1.59,7.29,1.07,11.52.54,3.82-.48,7.71-1.72,11.11-3.53.51-.27,1.08-.67,1.07-1.25,0-.28-.15-.54-.32-.76-.68-.88-1.76-1.33-2.82-1.67-3.61-1.15-7.33-1.02-11.05-.52Z"/>
    <path class="cls-10" d="M7.14,17.18c.16.08.64.44.81.51,4.03,1.45,8.28,1.17,12.52.53,4.45-.67,8.32-1.67,11.68-4.41"/>
  </g>
  <text class="cls-8" transform="translate(44.58 18.64)"><tspan class="cls-4"><tspan x="0" y="0">H</tspan><tspan class="cls-5" x="8.75" y="0">o</tspan><tspan x="15.25" y="0">w to Ma</tspan><tspan class="cls-6" x="55.66" y="0">k</tspan><tspan x="61.05" y="0">e </tspan></tspan><tspan class="cls-4" x="0" y="14.4">a Cup of Cof</tspan><tspan class="cls-2" x="63.36" y="14.4">f</tspan><tspan class="cls-4" x="66.24" y="14.4">ee</tspan><tspan class="cls-7" x="77.74" y="14.4"> </tspan></text>
</svg>