<?xml version="1.0" encoding="UTF-8"?>
<svg id="Layer_1" xmlns="http://www.w3.org/2000/svg" viewBox="0 0 15.17 11.52">
  <defs>
    <style>
      .cls-1 {
        fill: #8e3d3e;
      }

      .cls-2 {
        fill: none;
        stroke: #fff;
        stroke-miterlimit: 10;
        stroke-width: .11px;
      }

      .cls-3 {
        fill: #4f2527;
      }
    </style>
  </defs>
  <path class="cls-3" d="M12.01,2.78c.19-.27.41-.5.67-.7.36-.27.82-.46,1.25-.35.31.08.57.31.76.57.16.22.28.46.36.72.17.55.13,1.14.05,1.71-.11.77-.31,1.57-.86,2.13-.34.35-.8.57-1.28.63s-.98-.05-1.4-.3c0-.23.13-.48.3-.64.51.39,1.3.36,1.81-.04s.76-1.04.86-1.68c.09-.56.05-1.18-.28-1.65-.1-.14-.22-.27-.39-.32-.12-.04-.26-.03-.38,0-.52.12-.92.51-1.33.85-.06.05-.12.09-.19.09-.12,0-.2-.14-.21-.26-.02-.27.09-.54.25-.76Z"/>
  <path class="cls-1" d="M1.29,8.5c.58.91,1.23,1.69,2.12,2.24.48.3,1.17.48,1.71.62,1.5.4,3.38.02,4.55-1.09s1.72-2.06,2.18-3.69c.11-.37.2-.76.25-1.14.1-.71.1-2.03-.03-2.73-.04-.24-.1-1.15-.26-1.32-.13-.14-.71-.26-.88-.32-2.3-.85-4.43-.05-6.83.34-1.23.2-2.81.37-3.86,1.19-.4.32-.18,1.09-.14,1.56.06.71.15,1.43.31,2.12.18.79.46,1.55.89,2.21Z"/>
  <path class="cls-3" d="M5.13.18c-.82.11-1.63.28-2.42.51C1.74.97.74,1.38.17,2.2c-.11.16-.2.74-.13.92.08.22.33.38.54.49,1.57.76,3.49.51,5.51.26,1.83-.23,3.68-.82,5.31-1.69.24-.13.52-.32.51-.6,0-.13-.07-.26-.15-.36-.33-.42-.84-.64-1.35-.8-1.73-.55-3.5-.49-5.28-.25Z"/>
  <path class="cls-2" d="M.07,3.91c.08.04.3.21.39.24,1.93.69,3.96.56,5.98.25,2.13-.32,3.98-.8,5.58-2.11"/>
</svg>