<?xml version="1.0" encoding="UTF-8"?>
<svg xmlns="http://www.w3.org/2000/svg" version="1.1" viewBox="0 0 180 180">
  <defs>
    <style>
      .cls-1 {
        fill: #8e3d3e;
      }

      .cls-2 {
        fill: #4f2527;
      }

      .cls-3 {
        fill: none;
        stroke: #fff;
        stroke-miterlimit: 10;
        stroke-width: 1.2px;
      }
    </style>
  </defs>
  <!-- Generator: Adobe Illustrator 28.7.1, SVG Export Plug-In . SVG Version: 1.2.0 Build 142)  -->
  <g>
    <g id="Layer_1">
      <g>
        <path class="cls-2" d="M140.6,55.9c2.1-3,4.7-5.7,7.7-8,4.1-3.1,9.3-5.3,14.3-4,3.6.9,6.5,3.5,8.7,6.5,1.8,2.5,3.2,5.3,4.1,8.3,1.9,6.3,1.5,13.1.6,19.6-1.2,8.8-3.6,18-9.8,24.3-3.9,4-9.1,6.6-14.6,7.2-5.5.7-11.2-.5-16-3.4,0-2.7,1.5-5.5,3.4-7.3,5.9,4.5,14.9,4.2,20.7-.5,5.7-4.6,8.7-12,9.8-19.2,1-6.5.6-13.5-3.1-18.9-1.1-1.6-2.6-3.1-4.4-3.6-1.4-.4-2.9-.3-4.4,0-6,1.3-10.6,5.9-15.3,9.7-.6.5-1.4,1.1-2.2,1-1.4,0-2.2-1.6-2.3-3-.2-3.1,1.1-6.2,2.8-8.7Z"/>
        <path class="cls-1" d="M18,121.4c6.7,10.5,14.1,19.3,24.2,25.6,5.5,3.4,13.4,5.5,19.5,7.1,17.2,4.6,38.6.2,52.1-12.4,13.5-12.7,19.7-23.6,24.9-42.2,1.2-4.3,2.3-8.6,2.9-13.1,1.2-8.1,1.2-23.2-.3-31.2-.5-2.8-1.2-13.1-3-15.1-1.5-1.6-8.2-3-10.1-3.7-26.3-9.7-50.7-.5-78.2,3.9-14.1,2.3-32.2,4.2-44.2,13.6-4.6,3.6-2.1,12.4-1.6,17.9.7,8.2,1.7,16.3,3.5,24.3,2.1,9,5.3,17.7,10.2,25.3Z"/>
        <path class="cls-2" d="M61.8,26.1c-9.4,1.3-18.6,3.2-27.7,5.9-11,3.2-22.4,7.9-29,17.3-1.3,1.9-2.3,8.4-1.4,10.6,1,2.5,3.8,4.4,6.2,5.6,18,8.7,39.9,5.8,63,2.9,20.9-2.6,42.1-9.4,60.8-19.3,2.8-1.5,5.9-3.7,5.8-6.8,0-1.5-.8-2.9-1.8-4.2-3.7-4.8-9.6-7.3-15.4-9.1-19.8-6.3-40.1-5.6-60.4-2.8Z"/>
        <path class="cls-3" d="M4,68.8c.9.5,3.5,2.4,4.4,2.8,22,7.9,45.3,6.4,68.5,2.9,24.3-3.7,45.5-9.1,63.9-24.1"/>
      </g>
    </g>
  </g>
</svg>