<?xml version="1.0" encoding="UTF-8"?>
<svg id="Layer_1" xmlns="http://www.w3.org/2000/svg" viewBox="0 0 180 180">
  <defs>
    <style>
      .cls-1 {
        fill: #fff;
      }

      .cls-2 {
        fill: #ebe1bb;
      }
    </style>
  </defs>
  <path class="cls-1" d="M20.12,111.02V0h17.53v111.02h-17.53ZM30.74,56.45v-7.66h34.38v7.66H30.74ZM36.47,52.07v-7.12h19.55c6.35,0,11.28-1.31,14.79-3.95s5.26-6.4,5.26-11.3-1.84-8.47-5.52-11.03c-3.68-2.55-8.91-3.83-15.71-3.83h-18.04l-2.02-14.85h20.9c12.13,0,21.51,2.43,28.15,7.31,6.63,4.87,9.94,11.82,9.94,20.84,0,7.67-3.15,13.57-9.44,17.72-6.29,4.14-15.23,6.21-26.8,6.21h-21.07ZM36.47,111.02v-14.85h24.61c7.42,0,13.17-1.58,17.27-4.73,4.1-3.15,6.15-7.57,6.15-13.25s-2.14-10.36-6.4-13.57c-4.27-3.2-10.34-4.81-18.2-4.81h-23.09l-2.02-7.11h29.33c12.13,0,21.51,2.43,28.14,7.27,6.64,4.85,9.95,11.7,9.95,20.57,0,9.69-3.14,17.19-9.44,22.51-6.29,5.32-15.22,7.98-26.8,7.98h-29.49Z"/>
  <path class="cls-2" d="M77.79,180v-111.02h17.53v111.02h-17.53ZM88.41,125.42v-7.66h34.39v7.66h-34.39ZM94.14,121.05v-7.12h19.55c6.36,0,11.28-1.31,14.79-3.95,3.51-2.64,5.27-6.4,5.27-11.3s-1.84-8.47-5.52-11.03c-3.68-2.55-8.92-3.83-15.72-3.83h-18.04l-2.02-14.85h20.9c12.13,0,21.52,2.43,28.15,7.31s9.94,11.82,9.94,20.84c0,7.67-3.14,13.57-9.44,17.72-6.29,4.14-15.23,6.21-26.8,6.21h-21.07ZM94.14,180v-14.85h24.61c7.42,0,13.17-1.58,17.27-4.73,4.1-3.15,6.15-7.57,6.15-13.25s-2.13-10.36-6.4-13.57c-4.27-3.2-10.34-4.81-18.2-4.81h-23.1l-2.02-7.11h29.33c12.13,0,21.51,2.43,28.15,7.27,6.63,4.85,9.94,11.7,9.94,20.57,0,9.69-3.15,17.19-9.44,22.51-6.29,5.32-15.23,7.98-26.8,7.98h-29.5Z"/>
</svg>