<?xml version="1.0" encoding="UTF-8"?>
<svg id="Layer_1" xmlns="http://www.w3.org/2000/svg" viewBox="0 0 16 16">
  <defs>
    <style>
      .cls-1 {
        fill: #fff;
      }

      .cls-2 {
        fill: #ebe1bb;
      }
    </style>
  </defs>
  <path class="cls-1" d="M1.79,9.87V0h1.56v9.87h-1.56ZM2.73,5.02v-.68h3.06v.68h-3.06ZM3.24,4.63v-.63h1.74c.56,0,1-.12,1.31-.35s.47-.57.47-1-.16-.75-.49-.98c-.33-.23-.79-.34-1.4-.34h-1.6l-.18-1.32h1.86c1.08,0,1.91.22,2.5.65.59.43.88,1.05.88,1.85,0,.68-.28,1.21-.84,1.57-.56.37-1.35.55-2.38.55h-1.87ZM3.24,9.87v-1.32h2.19c.66,0,1.17-.14,1.54-.42.36-.28.55-.67.55-1.18s-.19-.92-.57-1.21c-.38-.28-.92-.43-1.62-.43h-2.05l-.18-.63h2.61c1.08,0,1.91.22,2.5.65.59.43.88,1.04.88,1.83,0,.86-.28,1.53-.84,2-.56.47-1.35.71-2.38.71h-2.62Z"/>
  <path class="cls-2" d="M6.91,16V6.13h1.56v9.87h-1.56ZM7.86,11.15v-.68h3.06v.68h-3.06ZM8.37,10.76v-.63h1.74c.56,0,1-.12,1.31-.35s.47-.57.47-1-.16-.75-.49-.98c-.33-.23-.79-.34-1.4-.34h-1.6l-.18-1.32h1.86c1.08,0,1.91.22,2.5.65s.88,1.05.88,1.85c0,.68-.28,1.21-.84,1.57-.56.37-1.35.55-2.38.55h-1.87ZM8.37,16v-1.32h2.19c.66,0,1.17-.14,1.54-.42.36-.28.55-.67.55-1.18s-.19-.92-.57-1.21-.92-.43-1.62-.43h-2.05l-.18-.63h2.61c1.08,0,1.91.22,2.5.65.59.43.88,1.04.88,1.83,0,.86-.28,1.53-.84,2-.56.47-1.35.71-2.38.71h-2.62Z"/>
</svg>