<?xml version="1.0" encoding="UTF-8"?>
<svg id="Layer_1" xmlns="http://www.w3.org/2000/svg" viewBox="0 0 150 100">
  <defs>
    <style>
      .cls-1 {
        fill: #ba2025;
      }
    </style>
  </defs>
  <path class="cls-1" d="M10.08,49.18C6.89,40.22,3.58,31.33.14,22.52c1.25.03,2.26.04,3.04.04.86,0,1.87-.01,3.04-.04l5.47,16.16,2.29,6.36c.49-.96,1.24-2.51,2.24-4.63,1-2.13,1.71-3.7,2.14-4.71-.6-1.82-1.36-4.03-2.27-6.62s-1.72-4.78-2.41-6.56c1.11.03,2.08.04,2.91.04.92,0,1.89-.01,2.91-.04.62,2.36,1.3,4.69,2.04,6.99,1.09-2.36,2.09-4.69,2.99-6.99,1.13.03,2.05.04,2.74.04.79,0,1.71-.01,2.74-.04-.83,1.67-1.87,3.79-3.1,6.38-1.23,2.59-2.23,4.75-2.98,6.48.29.94.82,2.53,1.61,4.77.79,2.24,1.36,3.82,1.73,4.75l5.24-11.17,3.8-8.36,1.25-2.85c1.25.03,2.26.04,3.01.04.83,0,1.85-.01,3.03-.04l-3.67,7.29-7.67,15.74-1.72,3.63c-1.39-.03-2.58-.04-3.57-.04-1.04,0-2.24.01-3.59.04-.77-2.62-1.62-5.2-2.54-7.74-1.23,2.53-2.4,5.11-3.51,7.74-1.39-.03-2.6-.04-3.61-.04-1.07,0-2.27.01-3.61.04Z"/>
  <path class="cls-1" d="M8.74,77.77c.45-4.46.79-9.59,1.02-15.39.23-5.79.34-10.89.34-15.27,1.8.03,3.3.04,4.51.04,1.3,0,2.58-.02,3.83-.07s2.57-.07,3.96-.07c1.74,0,3.29.1,4.66.29,1.37.19,2.59.64,3.65,1.35,1.06.7,1.85,1.56,2.37,2.56s.77,2.17.77,3.5c0,.84-.1,1.64-.29,2.39-.19.76-.48,1.47-.86,2.13-.38.67-.83,1.25-1.36,1.75-.52.5-1.04.9-1.56,1.19s-1.1.54-1.76.75c-.66.21-1.54.46-2.65.76l1.53,2.96c.49.94,1.43,2.64,2.81,5.08l2.27,3.98c.12.21.48.89,1.08,2.04-1.83-.03-3.04-.04-3.63-.04-.72,0-1.99.01-3.81.04l-2.49-5.97c-.43-.91-.96-1.99-1.57-3.23l-2.71-5.46c-.27-.51-.64-1.27-1.12-2.29,1,.18,1.92.27,2.74.27,1.29,0,2.46-.21,3.53-.63,1.06-.42,1.88-1.07,2.45-1.94.57-.88.85-1.83.85-2.86,0-.63-.12-1.21-.37-1.75s-.66-1-1.25-1.37-1.28-.61-2.09-.72-1.62-.16-2.43-.16c-.45,0-1.06,0-1.84.02-.78.01-1.74.02-2.88.02l-.4,9.23-.42,16.85-3.49-.04c-.55,0-1.69.01-3.39.04Z"/>
  <g>
    <path class="cls-1" d="M45.69,43.17c-1.28-3.58-2.6-7.14-3.98-10.66.5.01.91.02,1.22.02.34,0,.75,0,1.22-.02l2.19,6.46.91,2.54c.2-.39.5-1,.9-1.85.4-.85.68-1.48.86-1.88-.24-.73-.54-1.61-.91-2.65-.37-1.04-.69-1.91-.96-2.62.44.01.83.02,1.16.02.37,0,.76,0,1.16-.02.25.94.52,1.88.82,2.8.44-.94.83-1.87,1.2-2.8.45.01.82.02,1.09.02.32,0,.68,0,1.09-.02-.33.67-.75,1.52-1.24,2.55-.49,1.04-.89,1.9-1.19,2.59.12.38.33,1.01.64,1.91.31.9.54,1.53.69,1.9l2.1-4.47,1.52-3.34.5-1.14c.5.01.9.02,1.21.02.33,0,.74,0,1.21-.02l-1.47,2.91-3.07,6.3-.69,1.45c-.56-.01-1.03-.02-1.43-.02-.42,0-.9,0-1.44.02-.31-1.05-.65-2.08-1.02-3.1-.49,1.01-.96,2.05-1.4,3.1-.56-.01-1.04-.02-1.45-.02-.43,0-.91,0-1.45.02Z"/>
    <path class="cls-1" d="M59.28,43.17c.12-1.79.23-3.63.3-5.51s.12-3.32.12-4.32v-.84s1.3.02,1.3.02c.07,0,.47,0,1.2-.02-.21,2.74-.35,6.29-.4,10.66l-1.15-.02c-.19,0-.65,0-1.36.02Z"/>
    <path class="cls-1" d="M63.75,43.17c.16-1.57.28-3.31.37-5.24.09-1.92.15-3.73.16-5.43.53.01.97.02,1.33.02.24,0,.62,0,1.15-.02-.07.94-.13,2.01-.19,3.2l-.16,3.13c-.05.9-.08,1.79-.1,2.67l1.35.02c1.26,0,2.09,0,2.49-.01.4,0,.79-.02,1.17-.04-.05.51-.09,1.08-.12,1.7-1.37-.01-2.54-.02-3.52-.02h-2.46s-1.47.02-1.47.02Z"/>
    <path class="cls-1" d="M72.18,43.17c.16-1.57.28-3.31.37-5.24.09-1.92.15-3.73.16-5.43.53.01.97.02,1.33.02.24,0,.62,0,1.15-.02-.07.94-.13,2.01-.19,3.2l-.16,3.13c-.05.9-.08,1.79-.1,2.67l1.35.02c1.26,0,2.09,0,2.49-.01.4,0,.79-.02,1.17-.04-.05.51-.09,1.08-.12,1.7-1.37-.01-2.54-.02-3.52-.02h-2.46s-1.47.02-1.47.02Z"/>
    <path class="cls-1" d="M84.82,43.17c.16-1.55.28-3.34.35-5.35s.12-3.79.12-5.31c.62.01,1.15.02,1.57.02.45,0,.9,0,1.33-.02s.89-.02,1.38-.02c.6,0,1.14.03,1.62.1.48.07.9.22,1.27.47.37.25.64.54.82.89.18.35.27.76.27,1.22,0,.29-.03.57-.1.83-.07.26-.17.51-.3.74-.13.23-.29.44-.47.61-.18.17-.36.31-.54.41s-.38.19-.61.26c-.23.07-.54.16-.92.27l.53,1.03c.17.33.5.92.98,1.77l.79,1.38c.04.07.17.31.38.71-.64-.01-1.06-.02-1.26-.02-.25,0-.69,0-1.32.02l-.87-2.08c-.15-.32-.33-.69-.55-1.12l-.94-1.9c-.09-.18-.22-.44-.39-.8.35.06.67.09.95.09.45,0,.86-.07,1.23-.22.37-.15.65-.37.85-.68s.3-.64.3-1c0-.22-.04-.42-.13-.61s-.23-.35-.43-.48c-.2-.13-.45-.21-.73-.25-.28-.04-.56-.05-.84-.05-.16,0-.37,0-.64,0-.27,0-.6,0-1,0l-.14,3.21-.15,5.86-1.21-.02c-.19,0-.59,0-1.18.02Z"/>
    <path class="cls-1" d="M93.35,43.17c.54-.96,1.18-2.14,1.91-3.55l2.06-3.95c.64-1.22,1.17-2.27,1.59-3.16.68.01,1.16.02,1.44.02.5,0,.98,0,1.45-.02l1.12,3.2,2.43,6.61.34.86-1.17-.02c-.27,0-.73,0-1.37.02-.13-.46-.32-1.09-.59-1.88-.27-.79-.5-1.42-.68-1.91h-4.11c-.61,1.24-1.2,2.5-1.78,3.79l-1.27-.02c-.24,0-.69,0-1.35.02ZM98.45,37.76h2.99l-1.23-3.62-.63,1.31-1.13,2.3Z"/>
    <path class="cls-1" d="M106.46,43.17l.2-1.77.52-6.2.18-2.7c.74.01,1.29.02,1.63.02.28,0,.78,0,1.51-.02.08.42.15.72.19.9.04.18.12.46.24.85s.27.86.46,1.42c.28.84.52,1.68.74,2.5l.59,2.23,1.04-2.87,1.52-3.73c.05-.12.11-.27.16-.43.05-.16.15-.46.28-.88.62.01,1.17.02,1.66.02.32,0,.84,0,1.55-.02-.07,1.5-.13,3.16-.16,4.97-.04,1.82-.05,3.17-.05,4.07,0,.43,0,.97.02,1.62-.52-.01-.87-.02-1.06-.02-.27,0-.63,0-1.08.02.03-.53.05-.97.06-1.31l.13-4.65c.02-.66.02-1.3.02-1.94v-.63s-2.88,7.6-2.88,7.6l-.33.93c-.51-.01-.86-.02-1.04-.02-.24,0-.6,0-1.11.02l-1.34-4.81c-.05-.17-.16-.53-.33-1.08l-.48-1.59c-.05-.15-.08-.27-.11-.37-.02-.1-.07-.31-.15-.64l-.1,1c-.03.32-.07.85-.12,1.59l-.31,4.84c0,.24-.02.59-.02,1.06l-1.01-.02c-.17,0-.51,0-1.02.02Z"/>
    <path class="cls-1" d="M126.73,32.32c.78,0,1.52.11,2.23.32.71.21,1.35.56,1.9,1.04.55.48.97,1.04,1.25,1.68s.42,1.39.42,2.24c0,.8-.13,1.57-.4,2.3-.27.73-.68,1.36-1.23,1.89-.56.53-1.24.92-2.04,1.18s-1.64.38-2.52.38c-.83,0-1.63-.12-2.4-.35s-1.43-.6-1.98-1.1-.95-1.07-1.19-1.72-.36-1.35-.36-2.11c0-.83.15-1.62.45-2.38.3-.75.74-1.38,1.32-1.88.58-.49,1.26-.87,2.04-1.12.78-.25,1.62-.38,2.51-.38ZM126.61,33.98c-.79,0-1.47.18-2.05.54-.58.36-1.02.86-1.32,1.48-.29.63-.44,1.31-.44,2.04,0,.68.14,1.3.43,1.87s.72,1.01,1.31,1.3c.59.3,1.22.45,1.91.45.52,0,1.01-.09,1.48-.27.47-.18.87-.45,1.21-.81.34-.36.6-.8.77-1.31.17-.51.26-1.04.26-1.59,0-.52-.08-1.01-.23-1.48-.15-.47-.39-.88-.71-1.22-.32-.34-.71-.59-1.17-.76s-.93-.25-1.43-.25Z"/>
    <path class="cls-1" d="M133.59,42.95c-.04-.79-.1-1.44-.16-1.94,1.02.46,1.95.7,2.78.7.33,0,.64-.05.93-.15s.5-.24.64-.43c.14-.18.21-.39.21-.62,0-.18-.03-.34-.1-.48-.1-.19-.27-.39-.5-.6-.3-.29-.83-.76-1.59-1.41-.36-.32-.62-.54-.75-.68-.31-.3-.55-.56-.72-.8-.17-.24-.29-.47-.36-.71s-.11-.48-.11-.75c0-.49.14-.95.41-1.38s.68-.77,1.23-1.01,1.23-.36,2.06-.36c.75,0,1.58.09,2.52.27.03.54.08,1.16.16,1.86-.81-.31-1.56-.47-2.25-.47-.51,0-.93.12-1.25.35-.33.23-.49.5-.49.81,0,.08.01.17.03.26.02.09.06.18.1.27.05.09.13.2.24.34.12.14.29.3.51.48.22.19.42.33.57.45l.96.88c.24.2.46.4.66.59.19.19.36.38.5.55.14.18.25.35.32.51.08.16.14.33.18.5.04.17.06.35.06.54,0,.44-.1.85-.3,1.24-.2.39-.5.71-.88.96s-.8.42-1.25.52-.93.14-1.44.14c-.33,0-.72-.03-1.16-.09-.44-.06-1.03-.17-1.75-.33Z"/>
    <path class="cls-1" d="M141.81,43.17c.02-.38.05-1.08.09-2.1l1.19.02c.1,0,.45,0,1.02-.02-.03.38-.05.76-.06,1.15l-.05.95-1.02-.02s-.43,0-1.16.02ZM142.07,37.33c.02-.37.05-1.07.09-2.1l1.19.02c.1,0,.45,0,1.03-.02-.03.3-.05.69-.07,1.16l-.05.95c-.5-.01-.84-.02-1.02-.02-.18,0-.57,0-1.16.02Z"/>
  </g>
  <g>
    <path class="cls-1" d="M41.27,63.98l.17-2.28.17-3.4.11-3.34h-1.05s-.48.02-.48.02l-1.8.05c.04-.75.07-1.32.07-1.71,1.5.01,3.07.02,4.71.02h2.8s1.5-.02,1.5-.02c-.05.74-.08,1.31-.08,1.71-.94-.05-1.85-.07-2.71-.07h-.6l-.09,1.43-.22,5.49-.02.92c0,.38,0,.78,0,1.19l-1.19-.02c-.13,0-.56,0-1.27.02Z"/>
    <path class="cls-1" d="M48.07,63.98l.19-2.54.19-3.63.11-4.49c.46.01.84.02,1.14.02.4,0,.77,0,1.13-.02l-.14,1.86c-.03.46-.07,1.2-.13,2.21.17-.25.31-.44.42-.56.11-.12.24-.24.38-.35.14-.11.28-.2.43-.27.15-.07.32-.14.51-.2.2-.06.41-.1.65-.13s.48-.05.73-.05c.43,0,.85.05,1.25.15.4.1.74.27,1.03.5s.49.51.59.82c.11.32.16.64.16.99,0,.22-.01.57-.04,1.05l-.19,3.41c-.02.35-.02.76-.02,1.23-.42,0-.79-.02-1.12-.02-.35,0-.75,0-1.19.02.07-.61.14-1.45.21-2.52.07-1.06.1-1.82.1-2.27,0-.41-.07-.73-.2-.96-.13-.23-.33-.4-.58-.52-.26-.11-.54-.17-.85-.17-.4,0-.74.07-1.04.21-.29.14-.54.34-.73.61-.16.22-.3.54-.41.96-.11.44-.2,1.12-.25,2.03-.03.44-.06,1.32-.09,2.62-.41,0-.77-.02-1.06-.02-.28,0-.67,0-1.18.02Z"/>
    <path class="cls-1" d="M65.46,62.21c-.07.31-.16.86-.29,1.66-.56.12-1.04.2-1.42.24-.39.04-.77.06-1.16.06-.68,0-1.29-.07-1.83-.2-.54-.13-1.01-.38-1.42-.75s-.71-.8-.9-1.33c-.19-.53-.29-1.08-.29-1.65,0-.64.11-1.26.34-1.86.22-.6.54-1.09.94-1.48.4-.38.86-.65,1.38-.81.52-.16,1.05-.24,1.62-.24.53,0,1.04.07,1.52.2.48.13.88.35,1.21.65.33.3.58.66.75,1.09.17.42.26.9.26,1.42,0,.24-.03.5-.08.76h-5.73c-.01.2-.02.35-.02.47,0,.35.06.67.18.96.12.29.29.54.52.74.23.2.5.35.82.45.32.1.63.14.94.14.36,0,.75-.04,1.17-.12.42-.08.92-.21,1.5-.4ZM60.41,59.05h3.66c0-.24,0-.42-.02-.54-.02-.12-.05-.25-.11-.41-.05-.15-.13-.29-.22-.4-.09-.12-.2-.21-.33-.29-.12-.08-.27-.14-.43-.18-.16-.04-.34-.06-.53-.06-.22,0-.43.03-.64.1-.21.07-.39.17-.57.3-.17.13-.31.27-.42.44-.11.16-.19.31-.24.46-.05.15-.1.35-.16.59Z"/>
    <path class="cls-1" d="M71.49,63.98c.1-1.1.17-2.01.2-2.71s.08-1.9.14-3.6c.06-1.7.09-2.86.09-3.5,0-.19,0-.48,0-.85.66.01,1.2.02,1.63.02s.98,0,1.62-.02c.64-.02,1.17-.02,1.59-.02.58,0,1.02.03,1.32.07.29.05.56.12.79.22.23.1.42.22.58.36.16.14.29.31.4.51.11.2.2.41.25.63s.08.46.08.69c0,.29-.04.57-.11.83-.07.26-.17.5-.3.71s-.29.39-.46.54c-.18.15-.35.26-.51.35-.16.08-.38.17-.65.27.24.05.44.1.59.15.15.05.3.12.47.23.17.1.32.23.47.39.15.16.27.33.36.5.09.18.16.37.21.59.05.22.07.44.07.68,0,.5-.11.96-.32,1.38-.22.42-.51.75-.89.99-.38.24-.81.4-1.28.48-.47.08-1.47.12-3,.12h-1.89s-1.41,0-1.41,0ZM73.86,62.46h1.77c.36,0,.64-.01.84-.04.2-.03.39-.08.57-.15.18-.07.33-.15.43-.24.1-.08.2-.19.28-.32.08-.13.14-.28.19-.44.05-.16.07-.33.07-.51,0-.24-.04-.45-.12-.63-.08-.18-.21-.34-.37-.47-.16-.13-.36-.23-.58-.29-.22-.06-.55-.09-1-.09h-1.97l-.12,3.2ZM74.05,57.74h1.25c.53,0,.89-.01,1.08-.04.18-.03.38-.08.58-.15.2-.08.37-.19.51-.35.14-.16.24-.33.31-.52.07-.19.1-.38.1-.58s-.04-.38-.11-.55-.18-.31-.32-.43c-.15-.11-.32-.19-.53-.24-.21-.05-.51-.07-.9-.07h-1.87l-.11,2.94Z"/>
    <path class="cls-1" d="M81.79,63.98c.08-.78.13-1.43.17-1.96.05-.83.1-1.79.14-2.88.04-1.09.07-2.12.08-3.1.51.01.89.02,1.14.02.23,0,.61,0,1.13-.02-.07.91-.13,1.77-.17,2.59-.04.82-.07,1.77-.09,2.83-.02,1.06-.03,1.9-.03,2.52-.47,0-.86-.02-1.14-.02-.27,0-.68,0-1.23.02ZM82.22,54.68c.02-.54.03-.95.03-1.23v-.25c.47.01.86.02,1.16.02.41,0,.78,0,1.13-.02-.02.13-.03.28-.03.45l-.04,1.04c-.4,0-.76-.02-1.09-.02s-.72,0-1.16.02Z"/>
    <path class="cls-1" d="M90.33,55.85c.6,0,1.17.09,1.72.27.55.18,1.02.45,1.4.8s.67.78.86,1.29c.19.51.29,1.04.29,1.61,0,.59-.1,1.17-.3,1.72-.2.55-.5,1.03-.88,1.43-.39.4-.87.71-1.44.91-.58.2-1.19.3-1.84.3-.6,0-1.18-.09-1.72-.27-.54-.18-1.01-.45-1.39-.81-.39-.36-.68-.8-.88-1.31-.2-.52-.3-1.05-.3-1.62s.09-1.12.27-1.64c.18-.52.47-.98.86-1.39.39-.41.88-.72,1.49-.95.6-.22,1.23-.34,1.88-.34ZM90.33,57.46c-.45,0-.85.11-1.21.33-.36.22-.62.55-.79.99s-.26.91-.26,1.43c0,.45.07.86.21,1.21.14.35.38.64.7.86s.71.33,1.16.33.86-.11,1.2-.34c.34-.23.6-.56.78-1,.17-.44.26-.93.26-1.46,0-.43-.07-.83-.2-1.18-.14-.35-.36-.64-.68-.85-.32-.21-.71-.32-1.16-.32Z"/>
    <path class="cls-1" d="M96.5,65.63c1.17.39,2.19.58,3.05.58.33,0,.64-.04.93-.12.29-.08.54-.2.73-.35s.35-.36.46-.62c.11-.26.18-.57.22-.91s.07-.87.09-1.57c-.2.28-.39.49-.55.64-.16.15-.36.29-.58.41-.23.12-.49.22-.79.3s-.62.11-.95.11c-.46,0-.89-.07-1.3-.21-.41-.14-.78-.37-1.1-.68-.32-.31-.56-.69-.73-1.16-.17-.47-.25-.95-.25-1.46,0-.72.14-1.41.41-2.05.27-.65.67-1.18,1.2-1.59.53-.42,1.09-.7,1.7-.86s1.27-.23,2-.23c.41,0,.87.03,1.38.07.52.05,1.2.15,2.05.3l-.18,2.47-.16,3.1-.06,2.8c-.02.32-.05.62-.12.92-.06.29-.16.56-.3.8-.14.24-.31.45-.52.63-.21.18-.44.33-.71.44-.26.11-.59.21-.98.28-.39.07-.8.11-1.25.11-.47,0-1.01-.03-1.62-.09-.6-.06-1.26-.18-1.98-.35l-.1-1.7ZM102.21,57.6c-.45-.09-.87-.14-1.26-.14-.68,0-1.24.12-1.68.37-.44.25-.78.61-1.02,1.08-.24.48-.36.98-.36,1.51,0,.39.07.75.22,1.09.15.34.37.59.68.76.31.17.65.26,1.03.26.27,0,.51-.04.75-.12.23-.08.44-.21.63-.38.19-.17.35-.39.5-.64.14-.25.25-.54.3-.86.06-.32.11-.72.14-1.21s.06-1.05.08-1.72Z"/>
    <path class="cls-1" d="M106.02,63.98l.23-3.71.06-2.16c0-.44.02-.89.02-1.34,0-.08,0-.33-.02-.74.48.01.84.02,1.07.02.27,0,.62,0,1.05-.02l-.04,1.1c.2-.28.37-.49.51-.63.14-.14.3-.26.47-.36.17-.1.37-.17.58-.23.21-.05.43-.08.66-.08.21,0,.42.03.64.08,0,.48.02,1.1.07,1.84-.31-.08-.59-.12-.84-.12-.3,0-.57.05-.8.14-.23.09-.44.23-.62.41s-.34.41-.46.68c-.1.22-.17.5-.22.85-.04.27-.08.73-.1,1.39-.03.66-.04,1.3-.04,1.94,0,.25,0,.55.02.92-.4,0-.76-.02-1.09-.02s-.71,0-1.16.02Z"/>
    <path class="cls-1" d="M112.84,57.78c.07-.38.12-.64.14-.79.02-.15.05-.38.1-.69.71-.17,1.33-.28,1.88-.35.54-.07,1.07-.1,1.57-.1.57,0,1.1.07,1.58.2s.85.35,1.12.64c.27.29.41.71.41,1.26,0,.3-.04,1.05-.12,2.27-.08,1.22-.13,2.47-.15,3.77-.4,0-.76-.02-1.09-.02s-.69,0-1.12.02c.07-.63.12-1.36.17-2.19l.1-1.95c-.2.13-.35.22-.45.27-.1.05-.22.1-.35.14-.13.04-.36.11-.69.2-.33.09-.59.17-.79.24-.2.07-.38.14-.54.23-.16.09-.29.18-.4.29-.11.11-.19.22-.24.34s-.07.24-.07.38c0,.22.06.41.19.57.13.16.29.27.48.33s.42.09.68.09c.17,0,.34-.01.53-.04.18-.03.43-.09.75-.2-.11.3-.24.74-.38,1.33-.37.06-.66.1-.88.12s-.42.02-.61.02c-.66,0-1.2-.09-1.62-.27s-.73-.46-.93-.84c-.2-.38-.3-.77-.3-1.16,0-.22.04-.45.12-.66s.19-.42.34-.6c.15-.18.35-.36.59-.53.24-.17.59-.33,1.04-.49.45-.16,1.05-.32,1.8-.48.2-.04.4-.09.62-.15.21-.06.38-.12.51-.18.13-.06.24-.13.33-.22.09-.09.16-.19.21-.29.04-.1.07-.2.07-.3,0-.2-.07-.38-.2-.52s-.3-.24-.52-.29-.44-.08-.7-.08c-.95,0-2,.23-3.14.68Z"/>
    <path class="cls-1" d="M121.11,67.57c.13-1.45.25-3.34.35-5.65s.16-4.19.16-5.63c.99-.18,1.75-.29,2.3-.35.54-.06,1.08-.09,1.62-.09.7,0,1.35.08,1.93.25.59.17,1.05.45,1.41.84s.61.84.78,1.36.25,1.05.25,1.62-.08,1.12-.24,1.64c-.16.53-.41,1-.74,1.42-.33.42-.72.72-1.16.91-.44.19-.92.29-1.44.29-.31,0-.61-.04-.91-.11-.3-.07-.56-.17-.79-.29-.23-.12-.41-.24-.56-.36-.15-.12-.33-.31-.55-.55l-.12,3.4v.53c-.01.07-.02.33-.02.78-.48,0-.85,0-1.11,0h-1.16ZM123.78,57.72c-.04.28-.06.52-.08.73l-.05.87c-.02.37-.03.65-.03.83,0,.32.03.62.1.91.07.29.2.56.39.8.2.24.43.43.7.56.27.13.55.19.83.19.4,0,.76-.11,1.08-.34.33-.23.58-.56.75-1,.18-.44.27-.9.27-1.4,0-.55-.1-1.01-.29-1.38-.2-.38-.46-.65-.79-.82-.33-.17-.7-.26-1.12-.26-.54,0-1.13.1-1.77.31Z"/>
    <path class="cls-1" d="M131.25,63.98l.19-2.54.19-3.63.11-4.49c.46.01.84.02,1.14.02.4,0,.77,0,1.13-.02l-.14,1.86c-.03.46-.07,1.2-.13,2.21.17-.25.31-.44.42-.56s.24-.24.38-.35c.14-.11.28-.2.43-.27.15-.07.32-.14.51-.2.2-.06.41-.1.65-.13.24-.03.49-.05.74-.05.43,0,.85.05,1.25.15.4.1.74.27,1.03.5s.49.51.59.82c.11.32.16.64.16.99,0,.22-.01.57-.04,1.05l-.19,3.41c-.02.35-.02.76-.02,1.23-.42,0-.79-.02-1.12-.02-.35,0-.75,0-1.19.02.07-.61.14-1.45.21-2.52.07-1.06.1-1.82.1-2.27,0-.41-.07-.73-.2-.96-.13-.23-.33-.4-.58-.52-.26-.11-.54-.17-.85-.17-.4,0-.74.07-1.04.21-.29.14-.54.34-.73.61-.16.22-.3.54-.41.96-.12.44-.2,1.12-.25,2.03-.03.44-.06,1.32-.09,2.62-.41,0-.77-.02-1.06-.02-.28,0-.67,0-1.18.02Z"/>
    <path class="cls-1" d="M140.57,67.57c-.09-.78-.17-1.34-.23-1.69.5.23.97.35,1.41.35.14,0,.27-.02.41-.05.14-.03.27-.08.39-.14.08-.04.16-.1.24-.18.08-.08.19-.22.33-.43s.26-.41.37-.62c.08-.17.17-.39.26-.66l-1.62-4.75-1.19-3.37c.55.01.94.02,1.18.02.28,0,.64,0,1.09-.02.11.43.21.81.3,1.12l.74,2.45c.23.75.39,1.32.49,1.7.06.25.14.58.22.99.16-.47.29-.86.41-1.16.2-.54.49-1.27.85-2.17l.76-1.87c.14-.33.27-.69.41-1.08.47.01.83.02,1.07.02.22,0,.6,0,1.13-.02l-3.01,6.74-1.3,2.97c-.18.38-.36.68-.52.9-.14.18-.28.34-.45.47-.16.12-.32.23-.5.31-.22.1-.47.19-.73.25-.3.06-.6.09-.9.09-.17,0-.41-.02-.72-.05s-.61-.08-.9-.16Z"/>
  </g>
</svg>