<?xml version="1.0" encoding="UTF-8"?>
<svg id="Layer_1" xmlns="http://www.w3.org/2000/svg" viewBox="0 0 16 16">
  <defs>
    <style>
      .cls-1 {
        fill: #ba2025;
      }
    </style>
  </defs>
  <path class="cls-1" d="M4.59,7.72C3.66,5.13,2.7,2.55,1.71,0c.36,0,.66.01.88.01.25,0,.54,0,.88-.01l1.58,4.68.66,1.84c.14-.28.36-.73.65-1.34.29-.62.5-1.07.62-1.36-.17-.53-.39-1.17-.66-1.92s-.5-1.38-.7-1.9c.32,0,.6.01.84.01.27,0,.55,0,.84-.01.18.68.38,1.36.59,2.02.32-.68.6-1.36.87-2.02.33,0,.59.01.79.01.23,0,.49,0,.79-.01-.24.48-.54,1.1-.9,1.85-.36.75-.64,1.38-.86,1.88.08.27.24.73.47,1.38.23.65.39,1.11.5,1.38l1.52-3.24,1.1-2.42.36-.83c.36,0,.65.01.87.01.24,0,.53,0,.88-.01l-1.06,2.11-2.22,4.56-.5,1.05c-.4,0-.75-.01-1.03-.01-.3,0-.65,0-1.04.01-.22-.76-.47-1.51-.74-2.24-.36.73-.7,1.48-1.02,2.24-.4,0-.75-.01-1.05-.01-.31,0-.66,0-1.05.01Z"/>
  <path class="cls-1" d="M4.2,16c.13-1.29.23-2.78.29-4.46.07-1.68.1-3.15.1-4.42.52,0,.96.01,1.31.01.38,0,.75,0,1.11-.02s.74-.02,1.15-.02c.5,0,.95.03,1.35.08.4.06.75.19,1.06.39.31.2.54.45.69.74s.22.63.22,1.01c0,.24-.03.47-.08.69-.06.22-.14.43-.25.62-.11.19-.24.36-.39.51-.15.15-.3.26-.45.34s-.32.16-.51.22c-.19.06-.45.13-.77.22l.44.86c.14.27.41.76.81,1.47l.66,1.15c.03.06.14.26.31.59-.53,0-.88-.01-1.05-.01-.21,0-.58,0-1.1.01l-.72-1.73c-.13-.26-.28-.58-.45-.94l-.79-1.58c-.08-.15-.19-.37-.32-.66.29.05.56.08.79.08.37,0,.71-.06,1.02-.18.31-.12.54-.31.71-.56.16-.25.25-.53.25-.83,0-.18-.04-.35-.11-.51s-.19-.29-.36-.4-.37-.18-.6-.21-.47-.05-.7-.05c-.13,0-.31,0-.53,0-.23,0-.5,0-.83,0l-.12,2.67-.12,4.88h-1.01c-.16-.01-.49,0-.98,0Z"/>
</svg>