<?xml version="1.0" encoding="UTF-8"?>
<svg id="Layer_1" xmlns="http://www.w3.org/2000/svg" viewBox="0 0 180 180">
  <defs>
    <style>
      .cls-1 {
        fill: #ba2025;
      }
    </style>
  </defs>
  <path class="cls-1" d="M51.62,86.85C41.22,57.67,30.42,28.72,19.22,0c4.07.09,7.37.13,9.92.13,2.79,0,6.1-.04,9.91-.13l17.83,52.64,7.45,20.73c1.61-3.14,4.04-8.17,7.29-15.1,3.24-6.93,5.57-12.05,6.97-15.35-1.95-5.93-4.42-13.12-7.41-21.56-2.99-8.44-5.61-15.56-7.86-21.36,3.6.09,6.76.13,9.48.13,3.01,0,6.17-.04,9.48-.13,2,7.68,4.22,15.27,6.66,22.78,3.55-7.68,6.8-15.27,9.75-22.78,3.69.09,6.66.13,8.91.13,2.59,0,5.56-.04,8.91-.13-2.72,5.43-6.08,12.36-10.09,20.8-4.01,8.44-7.25,15.48-9.71,21.12.94,3.06,2.69,8.24,5.24,15.54,2.56,7.3,4.43,12.46,5.63,15.47l17.08-36.4,12.38-27.24,4.06-9.29c4.08.09,7.35.13,9.81.13,2.72,0,6.01-.04,9.88-.13l-11.96,23.73-24.99,51.28-5.6,11.83c-4.54-.08-8.42-.13-11.64-.13-3.39,0-7.3.04-11.71.13-2.51-8.55-5.27-16.95-8.29-25.21-4.02,8.26-7.83,16.66-11.43,25.21-4.54-.08-8.46-.13-11.77-.13-3.48,0-7.4.04-11.77.13Z"/>
  <path class="cls-1" d="M47.25,180c1.47-14.54,2.57-31.24,3.31-50.12.73-18.88,1.1-35.46,1.1-49.76,5.85.1,10.75.15,14.7.15,4.24,0,8.4-.07,12.47-.22,4.07-.15,8.37-.22,12.91-.22,5.66,0,10.71.32,15.18.95,4.46.63,8.42,2.1,11.89,4.39,3.46,2.29,6.03,5.07,7.72,8.34,1.68,3.27,2.52,7.07,2.52,11.41,0,2.73-.32,5.33-.95,7.79-.63,2.47-1.57,4.78-2.82,6.95-1.24,2.17-2.72,4.08-4.43,5.71-1.71,1.64-3.4,2.93-5.09,3.88-1.68.95-3.6,1.77-5.74,2.45-2.15.68-5.02,1.51-8.63,2.49l4.98,9.66c1.61,3.07,4.66,8.59,9.15,16.54l7.39,12.95c.39.68,1.56,2.9,3.51,6.66-5.97-.1-9.91-.15-11.81-.15-2.35,0-6.48.05-12.4.15l-8.11-19.46c-1.41-2.97-3.12-6.49-5.11-10.54l-8.84-17.78c-.88-1.66-2.09-4.15-3.65-7.46,3.27.59,6.25.88,8.93.88,4.2,0,8.03-.68,11.5-2.05,3.47-1.36,6.13-3.48,7.98-6.33,1.85-2.85,2.78-5.96,2.78-9.33,0-2.05-.4-3.95-1.21-5.71-.8-1.76-2.16-3.24-4.06-4.46-1.9-1.22-4.17-2-6.8-2.34-2.63-.34-5.27-.51-7.9-.51-1.46,0-3.46.03-6,.07-2.54.05-5.66.07-9.37.07l-1.31,30.07-1.38,54.88-11.35-.15c-1.81,0-5.49.05-11.06.15Z"/>
</svg>